<svg xmlns="http://www.w3.org/2000/svg" viewBox="0 0 2160 2160"><defs><style>.cls-1{fill:#6a85d4;}.cls-2{fill:#fff;}</style></defs><g id="LogoLayer"><g id="Logo"><path id="Callout" class="cls-1" d="M1930,2045.59l-452.89-411.16,51.48,180H427.93c-109.31,0-197.93-88.62-197.93-197.93V312.34C230,203,318.62,114.41,427.93,114.41H1732.07C1841.38,114.41,1930,203,1930,312.34Z"/><path id="Discord_Icon" data-name="Discord Icon" class="cls-2" d="M1509.88,644.31c-145.69-107.19-275.24-102.75-275.24-102.75L1221,558c165.12,49,242.9,123.92,242.9,123.92-409.54-223.84-787.15-1.35-787.15-1.35,91.52-80.39,256.22-126.11,256.22-126.11s-5.73-9.27-8.49-12c-64.3-2.83-139,27.18-139,27.18-53.21,15.28-123.84,61.47-138,75.63s-150.17,320.67-139.79,572c118.7,164.74,300,148.33,300,148.33l61.71-81.53c-126.81-42.27-167.58-114.36-167.58-114.36,421.59,250.24,758.64,1.13,758.64,1.13-34,71.34-172.87,115.12-172.87,115.12l62.7,77.51c129.23,1,236.79-60.15,302.28-146.2C1656.7,922.85,1509.88,644.31,1509.88,644.31ZM895.93,1127c-55.11,0-99.79-49.63-99.79-110.87s44.68-110.87,99.79-110.87,99.78,49.64,99.78,110.87S951,1127,895.93,1127Zm357.8,0c-55.11,0-99.79-49.63-99.79-110.87s44.68-110.87,99.79-110.87,99.78,49.64,99.78,110.87S1308.84,1127,1253.73,1127Z"/></g></g></svg>