<svg xmlns="http://www.w3.org/2000/svg" viewBox="0 0 2160 2160"><defs><style>.cls-1{fill:#6a85d4;}</style></defs><g id="LogoLayer"><ellipse class="cls-1" cx="895.93" cy="1016.15" rx="99.78" ry="110.87"/><ellipse class="cls-1" cx="1253.73" cy="1016.15" rx="99.78" ry="110.87"/><path class="cls-1" d="M1930,312.34c0-109.31-88.62-197.93-197.93-197.93H427.93C318.62,114.41,230,203,230,312.34V1616.48c0,109.31,88.62,197.93,197.93,197.93H1528.59l-51.48-180L1930,2045.59Zm-277.45,904.91c-65.49,86-173,147.19-302.28,146.2l-62.7-77.51s138.9-43.78,172.87-115.12c0,0-337,249.11-758.64-1.13,0,0,40.77,72.09,167.58,114.36l-61.71,81.53s-181.35,16.41-300-148.33c-10.38-251.37,125.63-557.89,139.79-572s84.78-60.35,138-75.63c0,0,74.74-30,139-27.18,2.76,2.76,8.49,12,8.49,12s-164.7,45.72-256.22,126.11c0,0,377.61-222.49,787.15,1.35,0,0-77.78-74.95-242.9-123.92l13.68-16.41s129.55-4.44,275.24,102.75C1509.88,644.31,1656.7,922.85,1652.55,1217.25Z"/></g></svg>