<svg xmlns="http://www.w3.org/2000/svg" viewBox="0 0 2160 2160"><defs><style>.cls-1{fill:#5218fa;}.cls-2{fill:#3dd96f;}.cls-3{fill:#e0cf51;}.cls-4{font-size:546.46px;fill:#74ffad;font-family:MyriadPro-Regular, Myriad Pro;}.cls-5{fill:none;stroke:#005195;stroke-miterlimit:10;stroke-width:30.22px;}</style></defs><g id="Layer_2" data-name="Layer 2"><path class="cls-1" d="M388.63,856.22h63.74v182.22h68.38V856.22h63.74v447.56H520.75v-201.4H452.37v201.4H388.63Z"/><path class="cls-2" d="M770,856.22H943.78v63.94H833.69v118.28h87.49v63.94H833.69v137.46H943.78v63.94H770Z"/><path class="cls-3" d="M1168,1074.89l-70.12-218.67h67.22l42.88,144.5h1.16l44-144.5h60.26l-70.11,218.67L1317,1303.78h-67.22l-46.35-156h-1.16l-47.52,156h-60.26Z"/><text class="cls-4" transform="translate(1497.88 1240.39)">IV</text><path class="cls-5" d="M1137.46,543.61H544.19a22.63,22.63,0,0,0-19.58,11.3L228,1068.7a22.59,22.59,0,0,0,0,22.6l296.63,513.79a22.63,22.63,0,0,0,19.58,11.3h593.27a22.61,22.61,0,0,0,19.58-11.3l296.63-513.79a22.59,22.59,0,0,0,0-22.6L1157,554.91A22.61,22.61,0,0,0,1137.46,543.61Z"/></g></svg>