<svg xmlns="http://www.w3.org/2000/svg" viewBox="0 0 2160 2160"><defs><style>.cls-1{fill:#bf8e36;}</style></defs><g id="Layer_2" data-name="Layer 2"><path d="M1505,1203.79h0V1103.15H1202.14l100.64,100.64H1369a291.53,291.53,0,0,1-24.12,42.09l108.41,108.41a357,357,0,0,0,25.43-46.53C1495.48,1270.93,1504.78,1234.07,1505,1203.79Z"/><path d="M809.59,1080a291.5,291.5,0,0,1,34.14-137.28L731.2,830.2a447,447,0,0,0,1.15,501.28L844.7,1219.13A291.55,291.55,0,0,1,809.59,1080Z"/><path d="M1240.15,1339.14a293.87,293.87,0,0,1-304.63-18.49L825.11,1431.06a448.24,448.24,0,0,0,527.55,20.6Z"/><path d="M1368,954h137c0-37.48-17.75-81.9-28.33-105a422.24,422.24,0,0,0-24.06-45.38L1343.73,912.44A293,293,0,0,1,1368,954Z"/><path d="M937.19,838.2A293.84,293.84,0,0,1,1242,821.85L1358.63,705.2c-49.6-36.29-127.57-72.7-255.63-72.7a447.11,447.11,0,0,0-276.31,95.19Z"/><path d="M1500.93,602.25,602.25,1500.93l56.82,56.82,898.68-898.68ZM1065.86,1009,659.07,602.25l-56.82,56.82L1009,1065.86ZM1094.14,1151l406.79,406.79,56.82-56.82L1151,1094.14Z"/><path class="cls-1" d="M1500.93,602.25,602.25,1500.93l56.82,56.82,898.68-898.68ZM1065.86,1009,659.07,602.25l-56.82,56.82L1009,1065.86ZM1094.14,1151l406.79,406.79,56.82-56.82L1151,1094.14Z"/></g></svg>