<svg xmlns="http://www.w3.org/2000/svg" viewBox="0 0 2160 2160"><defs><style>.cls-1{fill:#bf8e36;}.cls-2{font-size:183px;font-family:ApexMk3-Medium, Apex Mk3;font-weight:500;}.cls-3{letter-spacing:-0.01em;}.cls-4{letter-spacing:-0.1em;}</style></defs><g id="Layer_2" data-name="Layer 2"><path d="M1505,1076.33h0V975.69H1202.14l100.64,100.64H1369a291.53,291.53,0,0,1-24.12,42.09l108.41,108.41a357.52,357.52,0,0,0,25.43-46.52C1495.48,1143.48,1504.78,1106.61,1505,1076.33Z"/><path d="M809.59,952.54a291.46,291.46,0,0,1,34.14-137.27L731.2,702.74A447,447,0,0,0,732.35,1204L844.7,1091.67A291.52,291.52,0,0,1,809.59,952.54Z"/><path d="M1240.15,1211.69a293.91,293.91,0,0,1-304.63-18.5L825.11,1303.6a448.24,448.24,0,0,0,527.55,20.6Z"/><path d="M1368,826.52h137c0-37.48-17.75-81.9-28.33-105a423.19,423.19,0,0,0-24.06-45.38L1343.73,785A292.38,292.38,0,0,1,1368,826.52Z"/><path d="M937.19,710.74A293.89,293.89,0,0,1,1242,694.39l116.64-116.64C1309,541.46,1231.06,505,1103,505a447,447,0,0,0-276.31,95.2Z"/><path class="cls-1" d="M1500.93,474.79,602.25,1373.48l56.82,56.82,898.68-898.69ZM1065.86,881.58,659.07,474.79l-56.82,56.82L1009,938.4Zm28.28,141.92,406.79,406.8,56.82-56.82L1151,966.69Z"/><text class="cls-2" transform="translate(335.57 1638.91)">Gene<tspan class="cls-3" x="386.67" y="0">r</tspan><tspan class="cls-4" x="486.41" y="0">a</tspan><tspan class="cls-3" x="574.8" y="0">t</tspan><tspan x="668.31" y="0">ion</tspan><tspan class="cls-1" x="915.9" y="0">X</tspan><tspan x="1016.19" y="0">music</tspan></text></g></svg>